<svg width="32" height="32" viewBox="0 0 32 32" fill="none" xmlns="http://www.w3.org/2000/svg">
<path d="M17.4133 3C17.0383 2.62506 16.5296 2.41443 15.9993 2.41443C15.469 2.41443 14.9604 2.62506 14.5853 3L1.29131 16.292C1.19833 16.385 1.12458 16.4954 1.07426 16.6168C1.02395 16.7383 0.998047 16.8685 0.998047 17C0.998047 17.1315 1.02395 17.2617 1.07426 17.3832C1.12458 17.5046 1.19833 17.615 1.29131 17.708C1.47908 17.8958 1.73376 18.0013 1.99931 18.0013C2.1308 18.0013 2.261 17.9754 2.38248 17.925C2.50396 17.8747 2.61433 17.801 2.70731 17.708L3.99931 16.414V27C3.99931 27.7957 4.31538 28.5587 4.87799 29.1213C5.4406 29.6839 6.20366 30 6.99931 30H14.9993C15.2645 30 15.5189 29.8946 15.7064 29.7071C15.894 29.5196 15.9993 29.2652 15.9993 29C15.9993 28.7348 15.894 28.4804 15.7064 28.2929C15.5189 28.1054 15.2645 28 14.9993 28H6.99931C6.73409 28 6.47974 27.8946 6.2922 27.7071C6.10467 27.5196 5.99931 27.2652 5.99931 27V14.414L15.9993 4.414L29.2913 17.708C29.4791 17.8958 29.7338 18.0013 29.9993 18.0013C30.2649 18.0013 30.5195 17.8958 30.7073 17.708C30.8951 17.5202 31.0006 17.2656 31.0006 17C31.0006 16.7345 30.8951 16.4798 30.7073 16.292L25.9993 11.586V5C25.9993 4.73479 25.894 4.48043 25.7064 4.2929C25.5189 4.10536 25.2645 4 24.9993 4H22.9993C22.7341 4 22.4797 4.10536 22.2922 4.2929C22.1047 4.48043 21.9993 4.73479 21.9993 5V7.586L17.4133 3Z" fill="white"/>
<path d="M32 25C32 26.8565 31.2625 28.637 29.9497 29.9497C28.637 31.2625 26.8565 32 25 32C23.1435 32 21.363 31.2625 20.0503 29.9497C18.7375 28.637 18 26.8565 18 25C18 23.1435 18.7375 21.363 20.0503 20.0503C21.363 18.7375 23.1435 18 25 18C26.8565 18 28.637 18.7375 29.9497 20.0503C31.2625 21.363 32 23.1435 32 25ZM25 21C24.7348 21 24.4804 21.1054 24.2929 21.2929C24.1054 21.4804 24 21.7348 24 22V24H22C21.7348 24 21.4804 24.1054 21.2929 24.2929C21.1054 24.4804 21 24.7348 21 25C21 25.2652 21.1054 25.5196 21.2929 25.7071C21.4804 25.8946 21.7348 26 22 26H24V28C24 28.2652 24.1054 28.5196 24.2929 28.7071C24.4804 28.8946 24.7348 29 25 29C25.2652 29 25.5196 28.8946 25.7071 28.7071C25.8946 28.5196 26 28.2652 26 28V26H28C28.2652 26 28.5196 25.8946 28.7071 25.7071C28.8946 25.5196 29 25.2652 29 25C29 24.7348 28.8946 24.4804 28.7071 24.2929C28.5196 24.1054 28.2652 24 28 24H26V22C26 21.7348 25.8946 21.4804 25.7071 21.2929C25.5196 21.1054 25.2652 21 25 21Z" fill="white"/>
</svg>
