<svg width="33" height="23" viewBox="0 0 33 23" fill="none" xmlns="http://www.w3.org/2000/svg">
<path d="M9.77133 3.00585C11.7699 1.26965 14.319 0.310766 16.958 0.302429C22.337 0.302429 26.8022 4.33137 27.2881 9.52669C30.4716 9.97994 32.9551 12.6652 32.9551 15.9609C32.9551 19.5789 29.9596 22.4616 26.3303 22.4616H8.52156C4.37631 22.4616 0.960938 19.17 0.960938 15.0443C0.960938 11.4928 3.49248 8.55169 6.84386 7.80633C7.12981 6.06784 8.23961 4.3354 9.77133 3.00585ZM11.0771 4.5308C9.56337 5.84625 8.77151 7.43164 8.77151 8.67255V9.57504L7.88167 9.67375C5.08818 9.98196 2.96057 12.2926 2.96057 15.0443C2.96057 17.9995 5.42012 20.4471 8.52156 20.4471H26.3303C28.9158 20.4471 30.9555 18.4085 30.9555 15.9609C30.9555 13.5113 28.9158 11.4727 26.3303 11.4727H25.3305V10.4654C25.3325 5.99331 21.6132 2.3169 16.958 2.3169C14.7982 2.32559 12.7125 3.10946 11.0771 4.5308Z" fill="#072B4A"/>
</svg>
