<svg width="32" height="33" viewBox="0 0 32 33" fill="none" xmlns="http://www.w3.org/2000/svg">
<g clip-path="url(#clip0_403_3937)">
<path fill-rule="evenodd" clip-rule="evenodd" d="M0 16.5921C0 24.7954 5.77733 31.6168 13.3333 33V21.0829H9.33333V16.5H13.3333V12.8329C13.3333 8.70788 15.9107 6.41712 19.556 6.41712C20.7107 6.41712 21.956 6.6 23.1107 6.78288V11H21.0667C19.1107 11 18.6667 12.0079 18.6667 13.2921V16.5H22.9333L22.2227 21.0829H18.6667V33C26.2227 31.6168 32 24.7968 32 16.5921C32 7.46625 24.8 0 16 0C7.2 0 0 7.46625 0 16.5921Z" fill="#11416A"/>
</g>
<defs>
<clipPath id="clip0_403_3937">
<rect width="32" height="33" fill="white"/>
</clipPath>
</defs>
</svg>
