<svg width="36" height="36" viewBox="0 0 36 36" fill="none" xmlns="http://www.w3.org/2000/svg">
<path d="M4.50015 14.6059C4.49643 14.8339 4.56211 15.0577 4.68849 15.2476C4.81486 15.4374 4.99596 15.5844 5.20777 15.669L16.0089 19.9901L20.33 30.7924C20.4135 31.0013 20.5577 31.1804 20.744 31.3066C20.9303 31.4327 21.1502 31.5001 21.3751 31.5H21.3931C21.621 31.4964 21.8424 31.4237 22.028 31.2915C22.2136 31.1593 22.3547 30.9739 22.4326 30.7597L31.4326 6.00975C31.5063 5.8084 31.5209 5.5902 31.4747 5.38083C31.4286 5.17146 31.3235 4.97965 31.172 4.82798C31.0204 4.67632 30.8287 4.57112 30.6194 4.52477C30.41 4.47842 30.1918 4.49286 29.9904 4.56637L5.2404 13.5664C5.02616 13.6445 4.84068 13.7858 4.7085 13.9716C4.57632 14.1574 4.50367 14.379 4.50015 14.607V14.6059Z" fill="#11416A"/>
</svg>
