<svg width="32" height="32" viewBox="0 0 32 32" fill="none" xmlns="http://www.w3.org/2000/svg">
<path d="M17.4143 3C17.0392 2.62506 16.5306 2.41443 16.0003 2.41443C15.47 2.41443 14.9613 2.62506 14.5863 3L1.29229 16.292C1.19931 16.385 1.12556 16.4954 1.07524 16.6168C1.02492 16.7383 0.999023 16.8685 0.999023 17C0.999023 17.1315 1.02492 17.2617 1.07524 17.3832C1.12556 17.5046 1.19931 17.615 1.29229 17.708C1.48006 17.8958 1.73474 18.0013 2.00029 18.0013C2.13177 18.0013 2.26197 17.9754 2.38345 17.925C2.50493 17.8747 2.61531 17.801 2.70829 17.708L4.00029 16.414V27C4.00029 27.7957 4.31636 28.5587 4.87897 29.1213C5.44158 29.6839 6.20464 30 7.00029 30H15.0003C15.2655 30 15.5199 29.8946 15.7074 29.7071C15.8949 29.5196 16.0003 29.2652 16.0003 29C16.0003 28.7348 15.8949 28.4804 15.7074 28.2929C15.5199 28.1054 15.2655 28 15.0003 28H7.00029C6.73507 28 6.48072 27.8946 6.29318 27.7071C6.10564 27.5196 6.00029 27.2652 6.00029 27V14.414L16.0003 4.414L29.2923 17.708C29.4801 17.8958 29.7347 18.0013 30.0003 18.0013C30.2658 18.0013 30.5205 17.8958 30.7083 17.708C30.8961 17.5202 31.0015 17.2656 31.0015 17C31.0015 16.7345 30.8961 16.4798 30.7083 16.292L26.0003 11.586V5C26.0003 4.73479 25.8949 4.48043 25.7074 4.2929C25.5199 4.10536 25.2655 4 25.0003 4H23.0003C22.7351 4 22.4807 4.10536 22.2932 4.2929C22.1056 4.48043 22.0003 4.73479 22.0003 5V7.586L17.4143 3Z" fill="#11416A"/>
<path d="M32 25C32 26.8565 31.2625 28.637 29.9497 29.9497C28.637 31.2625 26.8565 32 25 32C23.1435 32 21.363 31.2625 20.0503 29.9497C18.7375 28.637 18 26.8565 18 25C18 23.1435 18.7375 21.363 20.0503 20.0503C21.363 18.7375 23.1435 18 25 18C26.8565 18 28.637 18.7375 29.9497 20.0503C31.2625 21.363 32 23.1435 32 25ZM25 21C24.7348 21 24.4804 21.1054 24.2929 21.2929C24.1054 21.4804 24 21.7348 24 22V24H22C21.7348 24 21.4804 24.1054 21.2929 24.2929C21.1054 24.4804 21 24.7348 21 25C21 25.2652 21.1054 25.5196 21.2929 25.7071C21.4804 25.8946 21.7348 26 22 26H24V28C24 28.2652 24.1054 28.5196 24.2929 28.7071C24.4804 28.8946 24.7348 29 25 29C25.2652 29 25.5196 28.8946 25.7071 28.7071C25.8946 28.5196 26 28.2652 26 28V26H28C28.2652 26 28.5196 25.8946 28.7071 25.7071C28.8946 25.5196 29 25.2652 29 25C29 24.7348 28.8946 24.4804 28.7071 24.2929C28.5196 24.1054 28.2652 24 28 24H26V22C26 21.7348 25.8946 21.4804 25.7071 21.2929C25.5196 21.1054 25.2652 21 25 21Z" fill="#11416A"/>
</svg>
